<?xml version="1.0" encoding="UTF-8" standalone="no"?>
<!-- Created with Inkscape (http://www.inkscape.org/) -->

<svg
   width="16.0px"
   height="16.0px"
   viewBox="0 0 16.0 16.0"
   version="1.1"
   id="SVGRoot"
   sodipodi:docname="crossair_dot.svg"
   inkscape:version="1.2.2 (732a01da63, 2022-12-09)"
   xmlns:inkscape="http://www.inkscape.org/namespaces/inkscape"
   xmlns:sodipodi="http://sodipodi.sourceforge.net/DTD/sodipodi-0.dtd"
   xmlns="http://www.w3.org/2000/svg"
   xmlns:svg="http://www.w3.org/2000/svg">
  <sodipodi:namedview
     id="namedview14"
     pagecolor="#505050"
     bordercolor="#eeeeee"
     borderopacity="1"
     inkscape:showpageshadow="0"
     inkscape:pageopacity="0"
     inkscape:pagecheckerboard="0"
     inkscape:deskcolor="#505050"
     inkscape:document-units="px"
     showgrid="true"
     inkscape:zoom="22.627417"
     inkscape:cx="8.0433396"
     inkscape:cy="9.678524"
     inkscape:window-width="1718"
     inkscape:window-height="1401"
     inkscape:window-x="1713"
     inkscape:window-y="0"
     inkscape:window-maximized="0"
     inkscape:current-layer="layer1">
    <inkscape:grid
       type="xygrid"
       id="grid20" />
  </sodipodi:namedview>
  <defs
     id="defs9" />
  <g
     inkscape:label="Layer 1"
     inkscape:groupmode="layer"
     id="layer1">
    <circle
       style="fill:#000000;stroke-width:1.14584"
       id="path178"
       cx="7.9702606"
       cy="7.9219561"
       r="7.9702601" />
    <path
       style="fill:#000000;stroke-width:0.0441942"
       d="M 7.326458,15.84049 C 6.1637557,15.751087 4.9169116,15.354501 3.9332815,14.761216 1.9089894,13.540246 0.54938414,11.565924 0.12877574,9.2365823 0.03054594,8.692583 0.01652416,7.2982068 0.10388853,6.7617086 0.27321507,5.7218868 0.60687316,4.7786356 1.1050823,3.9313342 2.9318574,0.82454873 6.5006739,-0.65367461 10.00998,0.24287645 c 1.499072,0.38298 2.995993,1.32889395 4.003924,2.53010505 2.094415,2.4960375 2.490965,5.8650119 1.028521,8.7380075 -0.414189,0.81368 -0.794135,1.332295 -1.474541,2.012701 -0.680406,0.680406 -1.199021,1.060352 -2.012701,1.474541 -0.960777,0.489065 -1.9317103,0.761235 -3.0166304,0.845616 -0.5924402,0.04608 -0.5683247,0.04614 -1.2120946,-0.0034 z"
       id="path357" />
    <path
       style="fill:#ffffff;stroke-width:0.0441942"
       d="M 7.2994889,15.839603 C 4.5097653,15.609526 1.9994664,13.866084 0.79642983,11.323128 -0.91110952,7.7137638 0.29280306,3.4626376 3.6460193,1.2609656 5.4971484,0.04554176 7.8273097,-0.32535716 10.028089,0.24511197 c 1.490853,0.38644752 3.006332,1.34862103 3.995779,2.53690963 1.593664,1.9139293 2.21926,4.3484719 1.729305,6.7296907 -0.713699,3.4686297 -3.663052,6.0612227 -7.2016004,6.3304797 -0.6489229,0.04938 -0.6212781,0.04944 -1.2520837,-0.0026 z"
       id="path359" />
  </g>
</svg>
