# ProBuilder 5.0.7
# https://unity3d.com/unity/features/worldbuilding/probuilder
# 2023-08-21 1:09:22 PM

mtllib ./barrier_(lights).mtl
o barrier (lights)

g barrier (lights)
v -5 0.5000005 0.5
v -5 0 0.5
v -5 0.5000005 0
v -5 0 0
v 0 0 0.5
v 0 0 0
v 0 0.5000005 0.5
v 0 0.5000005 0
v -0.5012207 0.5000004 0.4999161
v -4.501221 0.5000004 0.4999161
v -0.5012207 2.5 0.4999161
v -4.501221 2.5 0.4999161
v -5.001221 0.5000004 0.4999161
v -5.001221 0.5000004 -8.392334E-05
v -5.001221 2.5 0.4999161
v -5.001221 2.5 -8.392334E-05
v -4.501221 0.5000004 -8.392334E-05
v -0.5012207 0.5000004 -8.392334E-05
v -4.501221 2.5 -8.392334E-05
v -0.5012207 2.5 -8.392334E-05
v -0.001220703 0.5000004 -8.392334E-05
v -0.001220703 0.5000004 0.4999161
v -0.001220703 2.5 -8.392334E-05
v -0.001220703 2.5 0.4999161
v -1 3.000003 0.4999161
v -4 3.000003 0.4999161
v -5 2.500002 0.4999161
v -5 2.500002 -8.392334E-05
v -4 3.500003 0.4999161
v -4 3.500003 -8.392334E-05
v -4 3.000003 -8.392334E-05
v -1 3.000003 -8.392334E-05
v 0 2.500002 -8.392334E-05
v 0 2.500002 0.4999161
v -1 3.500003 -8.392334E-05
v -1 3.500003 0.4999161

vt 5.960464E-08 0.6249999
vt 6.332994E-08 0.7500001
vt 0.1250001 0.6249999
vt 0.1250001 0.7500001
vt 1.25 -0.125
vt 0 -0.125
vt 1.25 0
vt 0 0
vt -0.45 -0.6906
vt -0.45 -0.5655999
vt -0.325 -0.6906
vt -0.325 -0.5655999
vt -1.25 -0.125
vt -1.25 0
vt 0.2499999 0.1219
vt 0.2499999 -0.003100097
vt -1 0.1219001
vt -1 -0.003099978
vt -0.7624999 -0.003099978
vt -0.7624999 0.1219001
vt 0.4875001 -0.003100097
vt 0.4875001 0.1219
vt -1 0
vt 0 0.5
vt -1 0.5
vt -0.1725 1.7525
vt -0.1725 1.8775
vt 0.3275 1.7525
vt 0.3275 1.8775
vt 1 -2.980232E-08
vt 1 0.5
vt -0.2975 0.75
vt -0.2975 0.875
vt 0.2025 0.75
vt 0.2025 0.875
vt 0 0.1250001
vt 1 0.125
vt -1 0.1250001
vt -0.1246948 0.1250001
vt -0.8746948 0.1250001
vt 0.7567252 0.875
vt 0.7567252 0.75
vt 0.4031717 0.875
vt 0.4031717 0.75
vt 0.8746948 0.1250001
vt 0.1246948 0.1250001
vt 0.1524498 0.75
vt 0.1524498 0.875
vt 0.5060035 0.75
vt 0.5060035 0.875
vt 0.1446948 0.875
vt 0.8946948 0.8749999
vt 0.1446948 0.75
vt 0.8946948 0.75
vt 0.015 0.6875
vt 0.14 0.6875
vt 0.015 0.5625
vt 0.14 0.5625
vt -0.1725 0.875
vt 0.3275 0.875
vt -0.1725 0.75
vt 0.3275 0.75
vt -0.11 0.5625
vt -0.11 0.6875
vt -0.01984738 0.4961669
vt 0.1051526 0.4961669
vt -0.01984738 0.3708618
vt 0.1051526 0.3708618
vt 0.2480832 0.7566121
vt 0.07152227 0.7563962
vt 0.3364715 0.875
vt -0.01708201 0.875
vt 0.04213268 0.8752159
vt 0.2186937 0.875
vt -0.04647161 0.7497855
vt 0.3070819 0.7497855
vt -0.02000004 0.9960148
vt -0.02000004 1.121015
vt 0.105 0.9960148
vt 0.105 1.121015
vt -0.104695 0.7500005
vt -0.8546948 0.7500005
vt -0.104695 0.8750005
vt -0.8546948 0.8750005
vt 0.01999998 1.375
vt -0.105 1.375
vt 0.01999998 1.5
vt -0.105 1.5
vt 0.145 1.375
vt 0.145 1.5
vt 0.8946948 0.8750005
vt -0.6568776 0.875
vt -0.6568776 0.75
vt -0.7815725 0.875
vt -0.7815725 0.75
vt 0.4886935 0.7495698
vt 0.3117009 0.7497855
vt 0.5770817 0.8750001
vt 0.2235282 0.875
vt 0.7110904 0.8747848
vt 0.8880831 0.8750005
vt 0.622918 0.7473928
vt 0.9764715 0.7473927
vt 0.3431225 1.375
vt 0.2181225 1.375
vt 0.3431225 1.5
vt 0.2181225 1.5
vt -0.9850001 1.565
vt -1.11 1.565
vt -0.9850001 1.69
vt -1.11 1.69
vt -0.7975 1.7525
vt -1.2975 1.7525
vt -0.7975 1.8775
vt -1.2975 1.8775
vt 0.8275 1.8775
vt 1.3275 1.8775
vt 0.8275 1.7525
vt 1.3275 1.7525
vt 1.015 1.69
vt 1.14 1.69
vt 1.015 1.565
vt 1.14 1.565

vn -4 0 0
vn 0 -4 0
vn 4 0 0
vn 0 4 0
vn 0 0 -4
vn 0 0 4
vn -2.828428 2.828426 0
vn 2.828428 2.828426 0

usemtl trimsheet
f 3/3/1 4/4/1 2/2/1 1/1/1
f 4/7/2 6/8/2 5/6/2 2/5/2
f 6/11/3 8/12/3 7/10/3 5/9/3
f 8/8/4 3/14/4 1/13/4 7/6/4
f 8/17/5 6/18/5 4/16/5 3/15/5
f 1/21/6 2/22/6 5/20/6 7/19/6

usemtl metal_galvanized
f 11/24/6 12/25/6 10/23/6 9/8/6
f 19/31/5 20/24/5 18/8/5 17/30/5
f 20/8/4 19/30/4 12/37/4 11/36/4
f 9/36/2 10/38/2 17/23/2 18/8/2
f 25/39/6 26/40/6 12/23/6 11/8/6
f 31/45/5 32/46/5 20/8/5 19/30/5
f 11/36/2 12/38/2 19/23/2 20/8/2

usemtl dark-step-trim-cable
f 15/28/1 16/29/1 14/27/1 13/26/1
f 23/34/3 24/35/3 22/33/3 21/32/3
f 29/43/7 30/44/7 28/42/7 27/41/7
f 35/49/8 36/50/8 34/48/8 33/47/8
f 35/53/4 30/54/4 29/52/4 36/51/4
f 21/57/2 22/58/2 9/56/2 18/55/2
f 23/35/5 21/33/5 18/32/5 20/34/5
f 22/61/6 24/62/6 11/60/6 9/59/6
f 24/55/4 23/64/4 20/63/4 11/57/4
f 33/67/2 34/68/2 11/66/2 20/65/2
f 35/71/5 33/72/5 20/70/5 32/69/5
f 34/75/6 36/76/6 25/74/6 11/73/6
f 36/79/1 35/80/1 32/78/1 25/77/1
f 36/83/6 29/84/6 26/82/6 25/81/6
f 35/87/3 36/88/3 25/86/3 32/85/3
f 29/90/1 30/87/1 31/85/1 26/89/1
f 30/91/5 35/51/5 32/53/5 31/54/5
f 27/94/2 28/95/2 19/93/2 12/92/2
f 29/98/6 27/99/6 12/97/6 26/96/6
f 28/102/5 30/103/5 31/101/5 19/100/5
f 30/106/3 29/107/3 26/105/3 31/104/3
f 13/110/2 14/111/2 17/109/2 10/108/2
f 15/114/6 13/115/6 10/113/6 12/112/6
f 14/118/5 16/119/5 19/117/5 17/116/5
f 16/122/4 15/123/4 12/121/4 19/120/4

