# ProBuilder 5.0.7
# https://unity3d.com/unity/features/worldbuilding/probuilder
# 2023-08-04 9:57:35 AM

mtllib ./crate_concrete.mtl
o crate_concrete

g crate_concrete
v 0 0 2
v -2 0 2
v 0 1.997184 2
v -2 2 2
v -2 0 0
v -2 2 0
v 0 0 0
v 0 1.997184 0

vt 0 0.25
vt -0.4999999 0.25
vt 0 0.749296
vt -0.4999999 0.75
vt 0.5 0.25
vt 0.5 0.75
vt 0 0.75
vt -0.5 0.25
vt -0.5 0.749296
vt 0.5007032 0.7500002
vt 0.5007032 0.2499997
vt 0.0007032603 0.7500002
vt 0.0007032454 0.2499997
vt -0.5 0.75

vn 0 0 4
vn -4 0 0
vn 0 0 -4
vn 4 0 0
vn 0.005631918 3.999996 0
vn 0 -4 0

usemtl trimsheet
f 3/3/1 4/4/1 2/2/1 1/1/1
f 4/6/2 6/7/2 5/1/2 2/5/2
f 6/6/3 8/3/3 7/1/3 5/5/3
f 8/3/4 3/9/4 1/8/4 7/1/4
f 8/12/5 6/13/5 4/11/5 3/10/5
f 1/1/6 2/7/6 5/14/6 7/8/6

