# Blender 3.5.1
# www.blender.org
mtllib ring.mtl
o Cylinder.005
v 0.834973 69.114357 111.394234
v 0.834973 69.114357 91.194237
v 0.834973 59.114361 111.394234
v 0.834973 59.114357 91.194237
v 22.314417 69.114357 109.278694
v 18.383348 69.114357 89.466835
v 22.314417 59.114361 109.278694
v 18.383348 59.114357 89.466835
v 42.968418 69.114357 103.013359
v 35.257351 69.114357 84.350998
v 42.968418 59.114357 103.013359
v 35.257351 59.114357 84.350998
v 62.003258 69.114357 92.839035
v 50.808517 69.114357 76.043350
v 62.003258 59.114357 92.839035
v 50.808517 59.114357 76.043350
v 78.687424 69.114357 79.146683
v 64.439224 69.114357 64.863129
v 78.687424 59.114357 79.146683
v 64.439224 59.114357 64.863129
v 92.379776 69.114357 62.462521
v 75.625671 69.114349 51.240005
v 92.379776 59.114357 62.462521
v 75.625671 59.114353 51.240005
v 102.554108 69.114349 43.427685
v 83.937943 69.114349 35.697479
v 102.554108 59.114353 43.427685
v 83.937943 59.114353 35.697479
v 108.819427 69.114349 22.773685
v 89.056602 69.114349 18.832861
v 108.819427 59.114353 22.773685
v 89.056602 59.114349 18.832861
v 110.934975 69.114349 1.294242
v 90.784981 69.114349 1.294242
v 110.934975 59.114349 1.294243
v 90.784981 59.114349 1.294243
v 108.819427 69.114349 -20.185200
v 89.056602 69.114349 -16.244375
v 108.819427 59.114349 -20.185200
v 89.056602 59.114349 -16.244375
v 102.554108 69.114342 -40.839199
v 83.937943 69.114349 -33.108994
v 102.554108 59.114346 -40.839199
v 83.937943 59.114346 -33.108994
v 75.625671 69.114342 -48.651520
v 92.379776 69.114342 -59.874035
v 92.379776 59.114346 -59.874035
v 75.625671 59.114346 -48.651520
v 78.687424 69.114342 -76.558197
v 64.439224 69.114342 -62.274647
v 78.687424 59.114342 -76.558197
v 64.439224 59.114346 -62.274647
v 62.003258 69.114342 -90.250549
v 50.808517 69.114342 -73.454865
v 62.003258 59.114342 -90.250549
v 50.808517 59.114342 -73.454865
v 42.968418 69.114342 -100.424873
v 35.257351 69.114342 -81.762512
v 42.968418 59.114342 -100.424873
v 35.257351 59.114342 -81.762512
v 18.383348 69.114342 -86.878349
v 22.314417 69.114342 -106.690208
v 18.383348 59.114342 -86.878349
v 22.314417 59.114342 -106.690208
v 0.834973 69.114342 -88.605751
v 0.834973 69.114342 -108.805748
v 0.834973 59.114342 -88.605751
v 0.834973 59.114342 -108.805748
v -16.713404 69.114342 -86.878349
v -20.644472 69.114342 -106.690208
v -16.713404 59.114342 -86.878349
v -20.644472 59.114342 -106.690208
v -33.587406 69.114342 -81.762512
v -41.298473 69.114342 -100.424873
v -33.587406 59.114342 -81.762512
v -41.298473 59.114342 -100.424873
v -49.138573 69.114342 -73.454865
v -60.333313 69.114342 -90.250549
v -49.138573 59.114342 -73.454865
v -60.333313 59.114342 -90.250549
v -62.769279 69.114342 -62.274647
v -77.017471 69.114342 -76.558197
v -62.769279 59.114346 -62.274647
v -77.017471 59.114342 -76.558197
v -73.955719 69.114342 -48.651520
v -90.709824 69.114342 -59.874035
v -73.955719 59.114346 -48.651520
v -90.709824 59.114346 -59.874035
v -100.884155 69.114342 -40.839199
v -82.267990 69.114349 -33.108994
v -82.267990 59.114346 -33.108994
v -100.884155 59.114346 -40.839199
v -107.149475 69.114349 -20.185200
v -87.386650 69.114349 -16.244375
v -107.149475 59.114349 -20.185200
v -87.386650 59.114349 -16.244375
v -109.265022 69.114349 1.294242
v -89.115028 69.114349 1.294242
v -109.265022 59.114349 1.294243
v -89.115028 59.114349 1.294243
v -87.386650 69.114349 18.832861
v -107.149475 69.114349 22.773685
v -107.149475 59.114353 22.773685
v -87.386650 59.114349 18.832861
v -82.267990 69.114349 35.697479
v -100.884155 69.114349 43.427685
v -100.884155 59.114353 43.427685
v -82.267990 59.114353 35.697479
v -73.955719 69.114349 51.240005
v -90.709824 69.114357 62.462521
v -73.955719 59.114353 51.240005
v -90.709824 59.114357 62.462521
v -62.769279 69.114357 64.863129
v -77.017471 69.114357 79.146683
v -62.769279 59.114357 64.863129
v -77.017471 59.114357 79.146683
v -60.333313 69.114357 92.839035
v -49.138573 69.114357 76.043350
v -49.138573 59.114357 76.043350
v -60.333313 59.114357 92.839035
v -33.587406 69.114357 84.350998
v -41.298473 69.114357 103.013359
v -41.298473 59.114357 103.013359
v -33.587406 59.114357 84.350998
v -16.713404 69.114357 89.466835
v -20.644472 69.114357 109.278694
v -16.713404 59.114357 89.466835
v -20.644472 59.114361 109.278694
vn 0.0980 -0.0000 0.9952
vn 0.2903 -0.0000 0.9569
vn 0.4714 -0.0000 0.8819
vn 0.6344 -0.0000 0.7730
vn 0.7730 -0.0000 0.6344
vn 0.8819 -0.0000 0.4714
vn 0.9569 -0.0000 0.2903
vn 0.9952 -0.0000 0.0980
vn 0.9952 -0.0000 -0.0980
vn 0.9569 -0.0000 -0.2903
vn 0.8819 -0.0000 -0.4714
vn 0.7730 -0.0000 -0.6344
vn 0.6344 -0.0000 -0.7730
vn 0.4714 -0.0000 -0.8819
vn 0.2903 -0.0000 -0.9569
vn 0.0980 -0.0000 -0.9952
vn -0.0980 -0.0000 -0.9952
vn -0.2903 -0.0000 -0.9569
vn -0.4714 -0.0000 -0.8819
vn -0.6344 -0.0000 -0.7730
vn -0.7730 -0.0000 -0.6344
vn -0.8819 -0.0000 -0.4714
vn -0.9569 -0.0000 -0.2903
vn -0.9952 -0.0000 -0.0980
vn -0.9952 -0.0000 0.0980
vn -0.9569 -0.0000 0.2903
vn -0.8819 -0.0000 0.4714
vn -0.7730 -0.0000 0.6344
vn -0.6344 -0.0000 0.7730
vn -0.4714 -0.0000 0.8819
vn -0.0000 -1.0000 -0.0000
vn -0.2903 -0.0000 0.9569
vn -0.0980 -0.0000 0.9952
vn -0.0000 1.0000 -0.0000
vn -0.2901 -0.0000 -0.9570
vn -0.4712 -0.0000 -0.8820
vn -0.6342 -0.0000 -0.7732
vn -0.7728 -0.0000 -0.6346
vn -0.8818 -0.0000 -0.4716
vn -0.9569 -0.0000 -0.2904
vn -0.9952 -0.0000 -0.0981
vn -0.9952 -0.0000 0.0981
vn -0.9569 -0.0000 0.2904
vn -0.8818 -0.0000 0.4716
vn -0.7728 -0.0000 0.6346
vn -0.6342 -0.0000 0.7732
vn -0.4712 -0.0000 0.8820
vn -0.2901 -0.0000 0.9570
vn 0.2901 -0.0000 0.9570
vn 0.4712 -0.0000 0.8820
vn 0.6342 -0.0000 0.7732
vn 0.7728 -0.0000 0.6346
vn 0.8818 -0.0000 0.4716
vn 0.9569 -0.0000 0.2904
vn 0.9952 -0.0000 0.0981
vn 0.9952 -0.0000 -0.0981
vn 0.9569 -0.0000 -0.2904
vn 0.8818 -0.0000 -0.4716
vn 0.7728 -0.0000 -0.6346
vn 0.6342 -0.0000 -0.7732
vn 0.4712 -0.0000 -0.8820
vn 0.2901 -0.0000 -0.9570
vt 1.000000 0.500000
vt 0.000000 0.500000
vt 0.750000 0.490000
vt 0.750000 0.445967
vt 1.000000 0.500000
vt 0.000000 0.500000
vt 1.000000 1.000000
vt 0.250000 0.490000
vt 0.000000 1.000000
vt 0.250000 0.445967
vt 1.000000 1.000000
vt 0.000000 1.000000
vt 0.968750 0.500000
vt 0.796822 0.485388
vt 0.788253 0.442202
vt 0.968750 0.500000
vt 0.968750 1.000000
vt 0.296822 0.485388
vt 0.288253 0.442202
vt 0.968750 1.000000
vt 0.937500 0.500000
vt 0.841844 0.471731
vt 0.825035 0.431050
vt 0.937500 0.500000
vt 0.937500 1.000000
vt 0.341844 0.471731
vt 0.325035 0.431050
vt 0.937500 1.000000
vt 0.906250 0.500000
vt 0.883337 0.449553
vt 0.858934 0.412941
vt 0.906250 0.500000
vt 0.906250 1.000000
vt 0.383337 0.449553
vt 0.358934 0.412941
vt 0.906250 1.000000
vt 0.875000 0.500000
vt 0.919706 0.419706
vt 0.888647 0.388570
vt 0.875000 0.500000
vt 0.875000 1.000000
vt 0.419706 0.419706
vt 0.388647 0.388570
vt 0.875000 1.000000
vt 0.843750 0.500000
vt 0.949553 0.383337
vt 0.913032 0.358874
vt 0.843750 0.500000
vt 0.843750 1.000000
vt 0.449553 0.383337
vt 0.413031 0.358874
vt 0.843750 1.000000
vt 0.812500 0.500000
vt 0.971731 0.341844
vt 0.931151 0.324993
vt 0.812500 0.500000
vt 0.812500 1.000000
vt 0.471731 0.341844
vt 0.431151 0.324993
vt 0.812500 1.000000
vt 0.781250 0.500000
vt 0.985388 0.296822
vt 0.942309 0.288231
vt 0.781250 0.500000
vt 0.781250 1.000000
vt 0.485388 0.296822
vt 0.442309 0.288231
vt 0.781250 1.000000
vt 0.750000 0.500000
vt 0.990000 0.250000
vt 0.946077 0.250000
vt 0.750000 0.500000
vt 0.750000 1.000000
vt 0.490000 0.250000
vt 0.446076 0.250000
vt 0.750000 1.000000
vt 0.718750 0.500000
vt 0.985388 0.203178
vt 0.942309 0.211769
vt 0.718750 0.500000
vt 0.718750 1.000000
vt 0.485388 0.203178
vt 0.442309 0.211769
vt 0.718750 1.000000
vt 0.687500 0.500000
vt 0.971731 0.158156
vt 0.931150 0.175007
vt 0.687500 0.500000
vt 0.687500 1.000000
vt 0.471731 0.158156
vt 0.431151 0.175007
vt 0.687500 1.000000
vt 0.913031 0.141126
vt 0.656250 0.500000
vt 0.656250 0.500000
vt 0.949553 0.116663
vt 0.656250 1.000000
vt 0.449553 0.116663
vt 0.413031 0.141126
vt 0.656250 1.000000
vt 0.625000 0.500000
vt 0.919706 0.080294
vt 0.888647 0.111430
vt 0.625000 0.500000
vt 0.625000 1.000000
vt 0.419706 0.080294
vt 0.388647 0.111430
vt 0.625000 1.000000
vt 0.593750 0.500000
vt 0.883337 0.050447
vt 0.858934 0.087059
vt 0.593750 0.500000
vt 0.593750 1.000000
vt 0.383337 0.050447
vt 0.358934 0.087059
vt 0.593750 1.000000
vt 0.562500 0.500000
vt 0.841844 0.028269
vt 0.825035 0.068950
vt 0.562500 0.500000
vt 0.562500 1.000000
vt 0.341844 0.028269
vt 0.325035 0.068950
vt 0.562500 1.000000
vt 0.788253 0.057798
vt 0.531250 0.500000
vt 0.531250 0.500000
vt 0.796822 0.014612
vt 0.288253 0.057798
vt 0.531250 1.000000
vt 0.531250 1.000000
vt 0.296822 0.014612
vt 0.750000 0.054033
vt 0.500000 0.500000
vt 0.500000 0.500000
vt 0.750000 0.010000
vt 0.250000 0.054033
vt 0.500000 1.000000
vt 0.500000 1.000000
vt 0.250000 0.010000
vt 0.711747 0.057798
vt 0.468750 0.500000
vt 0.468750 0.500000
vt 0.703178 0.014612
vt 0.211747 0.057798
vt 0.468750 1.000000
vt 0.468750 1.000000
vt 0.203178 0.014612
vt 0.674965 0.068950
vt 0.437500 0.500000
vt 0.437500 0.500000
vt 0.658156 0.028269
vt 0.174965 0.068950
vt 0.437500 1.000000
vt 0.437500 1.000000
vt 0.158156 0.028269
vt 0.641066 0.087059
vt 0.406250 0.500000
vt 0.406250 0.500000
vt 0.616663 0.050447
vt 0.141066 0.087059
vt 0.406250 1.000000
vt 0.406250 1.000000
vt 0.116663 0.050447
vt 0.611353 0.111430
vt 0.375000 0.500000
vt 0.375000 0.500000
vt 0.580294 0.080294
vt 0.111353 0.111430
vt 0.375000 1.000000
vt 0.375000 1.000000
vt 0.080294 0.080294
vt 0.586968 0.141126
vt 0.343750 0.500000
vt 0.343750 0.500000
vt 0.550447 0.116663
vt 0.086969 0.141126
vt 0.343750 1.000000
vt 0.343750 1.000000
vt 0.050447 0.116663
vt 0.312500 0.500000
vt 0.528269 0.158156
vt 0.568849 0.175007
vt 0.312500 0.500000
vt 0.068849 0.175007
vt 0.312500 1.000000
vt 0.312500 1.000000
vt 0.028269 0.158156
vt 0.281250 0.500000
vt 0.514612 0.203178
vt 0.557691 0.211769
vt 0.281250 0.500000
vt 0.281250 1.000000
vt 0.014612 0.203178
vt 0.057691 0.211769
vt 0.281250 1.000000
vt 0.250000 0.500000
vt 0.510000 0.250000
vt 0.553924 0.250000
vt 0.250000 0.500000
vt 0.250000 1.000000
vt 0.010000 0.250000
vt 0.053924 0.250000
vt 0.250000 1.000000
vt 0.557691 0.288231
vt 0.218750 0.500000
vt 0.218750 0.500000
vt 0.514612 0.296822
vt 0.218750 1.000000
vt 0.014612 0.296822
vt 0.057691 0.288231
vt 0.218750 1.000000
vt 0.568849 0.324993
vt 0.187500 0.500000
vt 0.187500 0.500000
vt 0.528269 0.341844
vt 0.187500 1.000000
vt 0.028269 0.341844
vt 0.068849 0.324993
vt 0.187500 1.000000
vt 0.586968 0.358874
vt 0.156250 0.500000
vt 0.156250 0.500000
vt 0.550447 0.383337
vt 0.086969 0.358874
vt 0.156250 1.000000
vt 0.156250 1.000000
vt 0.050447 0.383337
vt 0.611353 0.388570
vt 0.125000 0.500000
vt 0.125000 0.500000
vt 0.580294 0.419706
vt 0.111353 0.388570
vt 0.125000 1.000000
vt 0.125000 1.000000
vt 0.080294 0.419706
vt 0.093750 0.500000
vt 0.616663 0.449553
vt 0.641066 0.412941
vt 0.093750 0.500000
vt 0.141066 0.412941
vt 0.093750 1.000000
vt 0.093750 1.000000
vt 0.116663 0.449553
vt 0.674965 0.431050
vt 0.062500 0.500000
vt 0.062500 0.500000
vt 0.658156 0.471731
vt 0.158156 0.471731
vt 0.062500 1.000000
vt 0.174965 0.431050
vt 0.062500 1.000000
vt 0.711748 0.442202
vt 0.031250 0.500000
vt 0.031250 0.500000
vt 0.703178 0.485388
vt 0.211747 0.442202
vt 0.031250 1.000000
vt 0.203178 0.485388
vt 0.031250 1.000000
s 0
f 1/1/1 3/7/1 7/17/1 5/13/1
f 5/13/2 7/17/2 11/25/2 9/21/2
f 9/21/3 11/25/3 15/33/3 13/29/3
f 13/29/4 15/33/4 19/41/4 17/37/4
f 17/37/5 19/41/5 23/49/5 21/45/5
f 21/45/6 23/49/6 27/57/6 25/53/6
f 25/53/7 27/57/7 31/65/7 29/61/7
f 29/61/8 31/65/8 35/73/8 33/69/8
f 33/69/9 35/73/9 39/81/9 37/77/9
f 37/77/10 39/81/10 43/89/10 41/85/10
f 41/85/11 43/89/11 47/97/11 46/95/11
f 46/95/12 47/97/12 51/105/12 49/101/12
f 49/101/13 51/105/13 55/113/13 53/109/13
f 53/109/14 55/113/14 59/121/14 57/117/14
f 57/117/15 59/121/15 64/131/15 62/127/15
f 62/127/16 64/131/16 68/139/16 66/135/16
f 66/135/17 68/139/17 72/147/17 70/143/17
f 70/143/18 72/147/18 76/155/18 74/151/18
f 74/151/19 76/155/19 80/163/19 78/159/19
f 78/159/20 80/163/20 84/171/20 82/167/20
f 82/167/21 84/171/21 88/179/21 86/175/21
f 86/175/22 88/179/22 92/187/22 89/181/22
f 89/181/23 92/187/23 95/193/23 93/189/23
f 93/189/24 95/193/24 99/201/24 97/197/24
f 97/197/25 99/201/25 103/209/25 102/207/25
f 102/207/26 103/209/26 107/217/26 106/215/26
f 106/215/27 107/217/27 112/227/27 110/223/27
f 110/223/28 112/227/28 116/235/28 114/231/28
f 114/231/29 116/235/29 120/243/29 117/237/29
f 117/237/30 120/243/30 123/250/30 122/247/30
f 124/251/31 123/249/31 120/244/31 116/236/31 112/228/31 107/218/31 103/210/31 99/202/31 95/194/31 92/188/31 88/180/31 84/172/31 80/164/31 76/156/31 72/148/31 68/140/31 64/132/31 59/122/31 55/114/31 51/106/31 47/98/31 43/90/31 39/82/31 35/74/31 31/66/31 27/58/31 23/50/31 19/42/31 15/34/31 11/26/31 12/27/31 16/35/31 20/43/31 24/51/31 28/59/31 32/67/31 36/75/31 40/83/31 44/91/31 48/99/31 52/107/31 56/115/31 60/123/31 63/129/31 67/137/31 71/145/31 75/153/31 79/161/31 83/169/31 87/177/31 91/185/31 96/195/31 100/203/31 104/211/31 108/219/31 111/225/31 115/233/31 119/241/31
f 12/27/31 11/26/31 7/18/31 3/8/31 128/259/31 123/249/31 124/251/31 127/257/31 4/10/31 8/19/31
f 122/247/32 123/250/32 128/260/32 126/255/32
f 126/255/33 128/260/33 3/9/33 1/2/33
f 62/128/34 66/136/34 70/144/34 74/152/34 78/160/34 82/168/34 86/176/34 89/182/34 93/190/34 97/198/34 102/208/34 106/216/34 110/224/34 114/232/34 117/238/34 122/248/34 126/256/34 125/253/34 121/245/34 118/239/34 113/229/34 109/221/34 105/213/34 101/205/34 98/199/34 94/191/34 90/183/34 85/173/34 81/165/34 77/157/34 73/149/34 69/141/34 65/133/34 61/125/34
f 125/253/34 126/256/34 1/3/34 5/14/34 9/22/34 13/30/34 17/38/34 21/46/34 25/54/34 29/62/34 33/70/34 37/78/34 41/86/34 46/96/34 49/102/34 53/110/34 57/118/34 62/128/34 61/125/34 58/119/34 54/111/34 50/103/34 45/93/34 42/87/34 38/79/34 34/71/34 30/63/34 26/55/34 22/47/34 18/39/34 14/31/34 10/23/34 6/15/34 2/4/34
f 4/11/17 2/5/17 6/16/17 8/20/17
f 8/20/35 6/16/35 10/24/35 12/28/35
f 12/28/36 10/24/36 14/32/36 16/36/36
f 16/36/37 14/32/37 18/40/37 20/44/37
f 20/44/38 18/40/38 22/48/38 24/52/38
f 26/56/39 28/60/39 24/52/39 22/48/39
f 32/68/40 28/60/40 26/56/40 30/64/40
f 36/76/41 32/68/41 30/64/41 34/72/41
f 40/84/42 36/76/42 34/72/42 38/80/42
f 44/92/43 40/84/43 38/80/43 42/88/43
f 48/100/44 44/92/44 42/88/44 45/94/44
f 45/94/45 50/104/45 52/108/45 48/100/45
f 56/116/46 52/108/46 50/104/46 54/112/46
f 60/124/47 56/116/47 54/112/47 58/120/47
f 63/130/48 60/124/48 58/120/48 61/126/48
f 67/138/33 63/130/33 61/126/33 65/134/33
f 65/134/1 69/142/1 71/146/1 67/138/1
f 69/142/49 73/150/49 75/154/49 71/146/49
f 79/162/50 75/154/50 73/150/50 77/158/50
f 77/158/51 81/166/51 83/170/51 79/162/51
f 87/178/52 83/170/52 81/166/52 85/174/52
f 91/186/53 87/178/53 85/174/53 90/184/53
f 91/186/54 90/184/54 94/192/54 96/196/54
f 96/196/55 94/192/55 98/200/55 100/204/55
f 101/206/56 104/212/56 100/204/56 98/200/56
f 104/212/57 101/206/57 105/214/57 108/220/57
f 108/220/58 105/214/58 109/222/58 111/226/58
f 111/226/59 109/222/59 113/230/59 115/234/59
f 115/234/60 113/230/60 118/240/60 119/242/60
f 121/246/61 124/252/61 119/242/61 118/240/61
f 124/252/62 121/246/62 125/254/62 127/258/62
f 2/6/16 4/12/16 127/258/16 125/254/16
