# ProBuilder 5.0.7
# https://unity3d.com/unity/features/worldbuilding/probuilder
# 2023-08-16 11:18:47 AM

mtllib ./staircase_rusty.mtl
o staircase_rusty

g staircase_rusty
v -1 0 0
v -1 1 0.0999999
v -1 0.9 0
v -1 0 2
v -1 1 2
v -1 2 4
v -1 0 4
v -1 2 2.1
v -1 1.9 2
v -1 3 6
v -1 0 6
v -1 3 4.1
v -1 2.9 4
v -1 4 8
v -1 0 8
v -1 4 6.1
v -1 3.9 6
v -1 5 10
v -1 0 10
v -1 5 8.1
v -1 4.9 8
v -1 6 12
v -1 0 12
v -1 6 10.1
v -1 5.9 10
v -1 7 14
v -1 0 14
v -1 7 12.1
v -1 6.9 12
v -1 8 16
v -1 0 16
v -1 8 14.1
v -1 7.9 14
v -1 9 18
v -1 0 18
v -1 9 16.1
v -1 8.9 16
v -1 10 20
v -1 0 20
v -1 10 18.1
v -1 9.9 18
v -1 11 22
v -1 0 22
v -1 11 20.1
v -1 10.9 20
v -1 12 24
v -1 0 24
v -1 12 22.1
v -1 11.9 22
v -1 13 26
v -1 0 26
v -1 13 24.1
v -1 12.9 24
v -1 14 28
v -1 0 28
v -1 14 26.1
v -1 13.9 26
v -1 15 30
v -1 0 30
v -1 15 28.1
v -1 14.9 28
v -1 16 32
v -1 0 32
v -1 16 30.1
v -1 15.9 30
v -9 1 0.0999999
v -9 0 0
v -9 0.9 0
v -9 0 2
v -9 1 2
v -9 0 4
v -9 2 4
v -9 0 6
v -9 2 2.1
v -9 1.9 2
v -9 3 6
v -9 0 8
v -9 3 4.1
v -9 2.9 4
v -9 4 8
v -9 0 10
v -9 4 6.1
v -9 3.9 6
v -9 5 10
v -9 0 12
v -9 5 8.1
v -9 4.9 8
v -9 6 12
v -9 0 14
v -9 6 10.1
v -9 5.9 10
v -9 7 14
v -9 0 16
v -9 7 12.1
v -9 6.9 12
v -9 8 16
v -9 0 18
v -9 8 14.1
v -9 7.9 14
v -9 9 18
v -9 0 20
v -9 9 16.1
v -9 8.9 16
v -9 10 20
v -9 0 22
v -9 10 18.1
v -9 9.9 18
v -9 11 22
v -9 0 24
v -9 11 20.1
v -9 10.9 20
v -9 12 24
v -9 0 26
v -9 12 22.1
v -9 11.9 22
v -9 13 26
v -9 0 28
v -9 13 24.1
v -9 12.9 24
v -9 14 28
v -9 0 30
v -9 14 26.1
v -9 13.9 26
v -9 15 30
v -9 0 32
v -9 16 32
v -9 16 30.1
v -9 15.9 30
v -9 15 28.1
v -9 14.9 28

vt 4 -2
vt 3.975 -1.75
vt 4 -1.775
vt 3.5 -2
vt 3.5 -1.75
vt 3 -1.5
vt 3 -2
vt 3.475 -1.5
vt 3.5 -1.525
vt 2.5 -1.25
vt 2.5 -2
vt 2.975 -1.25
vt 3 -1.275
vt 2 -1
vt 2 -2
vt 2.475 -1
vt 2.5 -1.025
vt 1.5 -0.75
vt 1.5 -2
vt 1.975 -0.75
vt 2 -0.775
vt 1 -0.5
vt 1 -2
vt 1.475 -0.5
vt 1.5 -0.525
vt 0.5 -0.25
vt 0.5 -2
vt 0.975 -0.25
vt 1 -0.275
vt 0 0
vt 0 -2
vt 0.475 0
vt 0.5 -0.025
vt -0.5 0.25
vt -0.5 -2
vt -0.025 0.25
vt 0 0.225
vt -1 0.5
vt -1 -2
vt -0.525 0.5
vt -0.5 0.475
vt -1.5 0.75
vt -1.5 -2
vt -1.025 0.75
vt -1 0.725
vt -2 1
vt -2 -2
vt -1.525 1
vt -1.5 0.975
vt -2.5 1.25
vt -2.5 -2
vt -2.025 1.25
vt -2 1.225
vt -3 1.5
vt -3 -2
vt -2.525 1.5
vt -2.5 1.475
vt -3.5 1.75
vt -3.5 -2
vt -3.025 1.75
vt -3 1.725
vt -4 2
vt -4 -2
vt -3.525 2
vt -3.5 1.975
vt -3.975 -1.75
vt -4 -1.775
vt -3.5 -1.75
vt -3 -1.5
vt -3.475 -1.5
vt -3.5 -1.525
vt -2.5 -1.25
vt -2.975 -1.25
vt -3 -1.275
vt -2 -1
vt -2.475 -1
vt -2.5 -1.025
vt -1.5 -0.75
vt -1.975 -0.75
vt -2 -0.775
vt -1 -0.5
vt -1.475 -0.5
vt -1.5 -0.525
vt -0.5 -0.25
vt -0.975 -0.25
vt -1 -0.275
vt -0.475 0
vt -0.5 -0.025
vt 0.5 0.25
vt 0.025 0.25
vt 1 0.5
vt 0.525 0.5
vt 0.5 0.475
vt 1.5 0.75
vt 1.025 0.75
vt 1 0.725
vt 2 1
vt 1.525 1
vt 1.5 0.975
vt 2.5 1.25
vt 2.025 1.25
vt 2 1.225
vt 3 1.5
vt 2.525 1.5
vt 2.5 1.475
vt 3.5 1.75
vt 4 2
vt 3.525 2
vt 3.5 1.975
vt 3.025 1.75
vt 3 1.725
vt -1 -1.775
vt 1 -1.775
vt -1 -3.5
vt 1 -3.975
vt -1 -3.975
vt 1 -3.5
vt -1 -1.525
vt 1 -1.75
vt -1 -1.75
vt 1 -1.525
vt -1 -3
vt 1 -3.475
vt -1 -3.475
vt 1 -3
vt -1 -1.275
vt 1 -1.5
vt -1 -1.5
vt 1 -1.275
vt -1 -2.5
vt 1 -2.975
vt -1 -2.975
vt 1 -2.5
vt -1 -1.025
vt 1 -1.25
vt -1 -1.25
vt 1 -1.025
vt 1 -2.475
vt -1 -2.475
vt -1 -0.775
vt 1 -1
vt -1 -1
vt 1 -0.775
vt 1 -1.975
vt -1 -1.975
vt -1 -0.525
vt 1 -0.75
vt -1 -0.75
vt 1 -0.525
vt 1 -1.475
vt -1 -1.475
vt 1 -0.975
vt -1 -0.975
vt -1 -0.025
vt 1 -0.25
vt -1 -0.25
vt 1 -0.025
vt -1 0
vt 1 -0.475
vt -1 -0.475
vt 1 0
vt -1 0.225
vt 1 0.225
vt 1 0.025
vt -1 0.025
vt -1 0.475
vt 1 0.25
vt -1 0.25
vt 1 0.475
vt -1 1
vt 1 0.525
vt -1 0.525
vt 1 1
vt -1 1.5
vt 1 1.025
vt -1 1.025
vt 1 1.5
vt -1 0.975
vt 1 0.75
vt -1 0.75
vt 1 0.975
vt -1 2
vt 1 1.525
vt -1 1.525
vt 1 2
vt -1 1.225
vt 1 1.225
vt -1 2.5
vt 1 2.025
vt -1 2.025
vt 1 2.5
vt -1 1.475
vt 1 1.25
vt -1 1.25
vt 1 1.475
vt -1 3
vt 1 2.525
vt -1 2.525
vt 1 3
vt -1 1.725
vt 1 1.725
vt -1 3.5
vt 1 3.025
vt -1 3.025
vt 1 3.5
vt -1 1.975
vt 1 1.75
vt -1 1.75
vt 1 1.975
vt -1 4
vt 1 3.525
vt -1 3.525
vt 1 4
vt 1 -4.04819
vt 1 -4.083545
vt -1 -4.083545
vt -1 -4.04819
vt 1 -3.517859
vt 1 -3.553215
vt -1 -3.553215
vt -1 -3.517859
vt 1 -2.987529
vt 1 -3.022884
vt -1 -3.022884
vt -1 -2.987529
vt 1 -2.457198
vt 1 -2.492554
vt -1 -2.492554
vt -1 -2.457198
vt 1 -1.926866
vt 1 -1.962221
vt -1 -1.962221
vt -1 -1.926866
vt 1 -1.396536
vt 1 -1.431891
vt -1 -1.431891
vt -1 -1.396536
vt 1 -0.8662055
vt 1 -0.9015608
vt -1 -0.9015608
vt -1 -0.8662055
vt 1 -0.3358757
vt 1 -0.3712311
vt -1 -0.3712311
vt -1 -0.3358757
vt 1 0.1944544
vt 1 0.159099
vt -1 0.159099
vt -1 0.1944544
vt 1 0.7247844
vt 1 0.6894291
vt -1 0.6894291
vt -1 0.7247844
vt 1 1.255115
vt 1 1.219759
vt -1 1.219759
vt -1 1.255115
vt 1 1.785445
vt -1 1.785445
vt 1 2.315776
vt 1 2.280421
vt -1 2.280421
vt -1 2.315776
vt 1 2.846107
vt 1 2.810751
vt -1 2.810751
vt -1 2.846107
vt 1 3.376437
vt 1 3.341082
vt -1 3.341082
vt -1 3.376437
vt 1 3.906768
vt 1 3.871412
vt -1 3.871412
vt -1 3.906768

vn 4 0 0
vn -4 0 0
vn 0 0 -4
vn 0 4 0
vn 0 0 4
vn 0 2.828425 -2.828429

usemtl Grate
f 3/3/1 2/2/1 1/1/1
f 68/67/2 67/63/2 66/66/2
f 5/5/1 4/4/1 1/1/1
f 1/1/1 2/2/1 5/5/1
f 4/4/1 5/5/1 6/6/1
f 6/6/1 7/7/1 4/4/1
f 8/8/1 6/6/1 5/5/1
f 5/5/1 9/9/1 8/8/1
f 7/7/1 6/6/1 10/10/1
f 10/10/1 11/11/1 7/7/1
f 12/12/1 10/10/1 6/6/1
f 6/6/1 13/13/1 12/12/1
f 11/11/1 10/10/1 14/14/1
f 14/14/1 15/15/1 11/11/1
f 16/16/1 14/14/1 10/10/1
f 10/10/1 17/17/1 16/16/1
f 15/15/1 14/14/1 18/18/1
f 18/18/1 19/19/1 15/15/1
f 20/20/1 18/18/1 14/14/1
f 14/14/1 21/21/1 20/20/1
f 19/19/1 18/18/1 22/22/1
f 22/22/1 23/23/1 19/19/1
f 24/24/1 22/22/1 18/18/1
f 18/18/1 25/25/1 24/24/1
f 23/23/1 22/22/1 26/26/1
f 26/26/1 27/27/1 23/23/1
f 28/28/1 26/26/1 22/22/1
f 22/22/1 29/29/1 28/28/1
f 27/27/1 26/26/1 30/30/1
f 30/30/1 31/31/1 27/27/1
f 32/32/1 30/30/1 26/26/1
f 26/26/1 33/33/1 32/32/1
f 31/31/1 30/30/1 34/34/1
f 34/34/1 35/35/1 31/31/1
f 36/36/1 34/34/1 30/30/1
f 30/30/1 37/37/1 36/36/1
f 35/35/1 34/34/1 38/38/1
f 38/38/1 39/39/1 35/35/1
f 40/40/1 38/38/1 34/34/1
f 34/34/1 41/41/1 40/40/1
f 39/39/1 38/38/1 42/42/1
f 42/42/1 43/43/1 39/39/1
f 44/44/1 42/42/1 38/38/1
f 38/38/1 45/45/1 44/44/1
f 43/43/1 42/42/1 46/46/1
f 46/46/1 47/47/1 43/43/1
f 48/48/1 46/46/1 42/42/1
f 42/42/1 49/49/1 48/48/1
f 47/47/1 46/46/1 50/50/1
f 50/50/1 51/51/1 47/47/1
f 52/52/1 50/50/1 46/46/1
f 46/46/1 53/53/1 52/52/1
f 51/51/1 50/50/1 54/54/1
f 54/54/1 55/55/1 51/51/1
f 56/56/1 54/54/1 50/50/1
f 50/50/1 57/57/1 56/56/1
f 55/55/1 54/54/1 58/58/1
f 58/58/1 59/59/1 55/55/1
f 60/60/1 58/58/1 54/54/1
f 54/54/1 61/61/1 60/60/1
f 59/59/1 58/58/1 62/62/1
f 62/62/1 63/63/1 59/59/1
f 64/64/1 62/62/1 58/58/1
f 58/58/1 65/65/1 64/64/1
f 66/66/2 67/63/2 69/59/2
f 69/59/2 70/68/2 66/66/2
f 70/68/2 69/59/2 71/55/2
f 71/55/2 72/69/2 70/68/2
f 72/69/2 71/55/2 73/51/2
f 73/51/2 76/72/2 72/69/2
f 70/68/2 72/69/2 74/70/2
f 74/70/2 75/71/2 70/68/2
f 76/72/2 73/51/2 77/47/2
f 77/47/2 80/75/2 76/72/2
f 72/69/2 76/72/2 78/73/2
f 78/73/2 79/74/2 72/69/2
f 80/75/2 77/47/2 81/43/2
f 81/43/2 84/78/2 80/75/2
f 76/72/2 80/75/2 82/76/2
f 82/76/2 83/77/2 76/72/2
f 84/78/2 81/43/2 85/39/2
f 85/39/2 88/81/2 84/78/2
f 80/75/2 84/78/2 86/79/2
f 86/79/2 87/80/2 80/75/2
f 88/81/2 85/39/2 89/35/2
f 89/35/2 92/84/2 88/81/2
f 84/78/2 88/81/2 90/82/2
f 90/82/2 91/83/2 84/78/2
f 92/84/2 89/35/2 93/31/2
f 93/31/2 96/30/2 92/84/2
f 88/81/2 92/84/2 94/85/2
f 94/85/2 95/86/2 88/81/2
f 96/30/2 93/31/2 97/27/2
f 97/27/2 100/89/2 96/30/2
f 92/84/2 96/30/2 98/87/2
f 98/87/2 99/88/2 92/84/2
f 100/89/2 97/27/2 101/23/2
f 101/23/2 104/91/2 100/89/2
f 96/30/2 100/89/2 102/90/2
f 102/90/2 103/37/2 96/30/2
f 104/91/2 101/23/2 105/19/2
f 105/19/2 108/94/2 104/91/2
f 100/89/2 104/91/2 106/92/2
f 106/92/2 107/93/2 100/89/2
f 108/94/2 105/19/2 109/15/2
f 109/15/2 112/97/2 108/94/2
f 104/91/2 108/94/2 110/95/2
f 110/95/2 111/96/2 104/91/2
f 112/97/2 109/15/2 113/11/2
f 113/11/2 116/100/2 112/97/2
f 108/94/2 112/97/2 114/98/2
f 114/98/2 115/99/2 108/94/2
f 116/100/2 113/11/2 117/7/2
f 117/7/2 120/103/2 116/100/2
f 112/97/2 116/100/2 118/101/2
f 118/101/2 119/102/2 112/97/2
f 120/103/2 117/7/2 121/4/2
f 121/4/2 124/106/2 120/103/2
f 116/100/2 120/103/2 122/104/2
f 122/104/2 123/105/2 116/100/2
f 124/106/2 121/4/2 125/1/2
f 125/1/2 126/107/2 124/106/2
f 124/106/2 126/107/2 127/108/2
f 127/108/2 128/109/2 124/106/2
f 120/103/2 124/106/2 129/110/2
f 129/110/2 130/111/2 120/103/2
f 3/112/3 1/39/3 67/23/3
f 67/23/3 68/113/3 3/112/3
f 5/114/4 2/116/4 66/115/4
f 66/115/4 70/117/4 5/114/4
f 9/118/3 5/120/3 70/119/3
f 70/119/3 75/121/3 9/118/3
f 6/122/4 8/124/4 74/123/4
f 74/123/4 72/125/4 6/122/4
f 13/126/3 6/128/3 72/127/3
f 72/127/3 79/129/3 13/126/3
f 10/130/4 12/132/4 78/131/4
f 78/131/4 76/133/4 10/130/4
f 17/134/3 10/136/3 76/135/3
f 76/135/3 83/137/3 17/134/3
f 14/39/4 16/139/4 82/138/4
f 82/138/4 80/23/4 14/39/4
f 21/140/3 14/142/3 80/141/3
f 80/141/3 87/143/3 21/140/3
f 18/128/4 20/145/4 86/144/4
f 86/144/4 84/127/4 18/128/4
f 25/146/3 18/148/3 84/147/3
f 84/147/3 91/149/3 25/146/3
f 22/142/4 24/151/4 90/150/4
f 90/150/4 88/141/4 22/142/4
f 29/86/3 22/81/3 88/22/3
f 88/22/3 95/29/3 29/86/3
f 26/81/4 28/153/4 94/152/4
f 94/152/4 92/22/4 26/81/4
f 33/154/3 26/156/3 92/155/3
f 92/155/3 99/157/3 33/154/3
f 30/158/4 32/160/4 98/159/4
f 98/159/4 96/161/4 30/158/4
f 37/162/3 30/158/3 96/161/3
f 96/161/3 103/163/3 37/162/3
f 34/38/4 36/165/4 102/164/4
f 102/164/4 100/91/4 34/38/4
f 41/166/3 34/168/3 100/167/3
f 100/167/3 107/169/3 41/166/3
f 38/170/4 40/172/4 106/171/4
f 106/171/4 104/173/4 38/170/4
f 45/45/3 38/38/3 104/91/3
f 104/91/3 111/96/3 45/45/3
f 42/174/4 44/176/4 110/175/4
f 110/175/4 108/177/4 42/174/4
f 49/178/3 42/180/3 108/179/3
f 108/179/3 115/181/3 49/178/3
f 46/182/4 48/184/4 114/183/4
f 114/183/4 112/185/4 46/182/4
f 53/186/3 46/170/3 112/173/3
f 112/173/3 119/187/3 53/186/3
f 50/188/4 52/190/4 118/189/4
f 118/189/4 116/191/4 50/188/4
f 57/192/3 50/194/3 116/193/3
f 116/193/3 123/195/3 57/192/3
f 54/196/4 56/198/4 122/197/4
f 122/197/4 120/199/4 54/196/4
f 61/200/3 54/174/3 120/177/3
f 120/177/3 130/201/3 61/200/3
f 58/202/4 60/204/4 129/203/4
f 129/203/4 124/205/4 58/202/4
f 65/206/3 58/208/3 124/207/3
f 124/207/3 128/209/3 65/206/3
f 62/210/4 64/212/4 127/211/4
f 127/211/4 126/213/4 62/210/4
f 126/182/5 125/39/5 63/23/5
f 63/23/5 62/185/5 126/182/5
f 9/220/6 75/219/6 74/218/6
f 74/218/6 8/221/6 9/220/6
f 13/224/6 79/223/6 78/222/6
f 78/222/6 12/225/6 13/224/6
f 17/228/6 83/227/6 82/226/6
f 82/226/6 16/229/6 17/228/6
f 21/232/6 87/231/6 86/230/6
f 86/230/6 20/233/6 21/232/6
f 25/236/6 91/235/6 90/234/6
f 90/234/6 24/237/6 25/236/6
f 29/240/6 95/239/6 94/238/6
f 94/238/6 28/241/6 29/240/6
f 33/244/6 99/243/6 98/242/6
f 98/242/6 32/245/6 33/244/6
f 37/248/6 103/247/6 102/246/6
f 102/246/6 36/249/6 37/248/6
f 41/252/6 107/251/6 106/250/6
f 106/250/6 40/253/6 41/252/6
f 45/256/6 111/255/6 110/254/6
f 110/254/6 44/257/6 45/256/6
f 49/208/6 115/207/6 114/258/6
f 114/258/6 48/259/6 49/208/6
f 53/262/6 119/261/6 118/260/6
f 118/260/6 52/263/6 53/262/6
f 57/266/6 123/265/6 122/264/6
f 122/264/6 56/267/6 57/266/6
f 61/270/6 130/269/6 129/268/6
f 129/268/6 60/271/6 61/270/6
f 65/274/6 128/273/6 127/272/6
f 127/272/6 64/275/6 65/274/6

usemtl Grate
f 2/217/6 3/216/6 68/215/6 66/214/6

g stairs_left
v 0 16.9 30
v 0 17 30.1
v -0.09999847 17 30
v 0 17 32
v 0 0 32
v 0 0 30
v 0 0 0
v 0 1.9 0
v -1 17 30
v -1 17 32
v -0.09999847 2 0
v -1 2 0
v -1 0 0
v -1 0 32
v -1 0 30

vt -5.480086 6.409491
vt -5.497764 6.44011
vt -5.462409 6.44011
vt -7.5 4.225
vt -8 4.25
vt -7.525 4.25
vt -8 -0.25
vt -7.5 -0.25
vt 0 0
vt 0 0.475
vt -0.25 7.525
vt 0 7.5
vt -0.225 7.5
vt 0 8
vt -0.25 8
vt -0.25 0.475
vt -0.225 0.5
vt 0 0.5
vt -0.25 0
vt 0 4.25
vt 0.25 -0.25
vt 0 -0.25
vt 0.25 4.25
vt 7.5 -0.25
vt 7.5 4.25
vt 8 4.25
vt 8 -0.25
vt 0 0.2236068
vt -0.225 8.608862
vt 0 8.608862
vt -0.225 0.2236068
vt 0 7.504166
vt 0.25 0
vt 0.25 7.504166
vt 0.25 7.5
vt 0.25 8
vt 0.1944553 0.1708838
vt 0.1591 0.1708838
vt 2.810755 8.125834
vt 2.846111 8.125834

vn 2.309416 2.309372 -2.309416
vn 4 0 0
vn 0 4 0
vn 0 0 -4
vn 0 0 4
vn -4 0 0
vn 0 3.577709 -1.788854
vn 0 -4 0
vn 2.666692 2.666646 -1.333323

usemtl Metal-corrugated
f 133/278/7 132/277/7 131/276/7
f 132/281/8 134/280/8 131/279/8
f 133/288/9 139/287/9 132/286/9
f 142/293/10 141/292/10 138/291/10
f 131/279/8 134/280/8 135/282/8
f 135/282/8 136/283/8 131/279/8
f 134/290/9 132/286/9 139/287/9
f 139/287/9 140/289/9 134/290/9
f 143/284/10 142/293/10 138/291/10
f 138/291/10 137/294/10 143/284/10
f 140/295/11 144/297/11 135/296/11
f 135/296/11 134/298/11 140/295/11
f 140/301/12 139/300/12 145/299/12
f 145/299/12 144/302/12 140/301/12
f 142/303/13 139/305/13 133/304/13
f 133/304/13 141/306/13 142/303/13
f 145/307/14 143/284/14 137/308/14
f 137/308/14 136/309/14 145/307/14
f 144/289/14 145/287/14 136/310/14
f 136/310/14 135/311/14 144/289/14
f 131/314/15 138/313/15 141/312/15
f 141/312/15 133/315/15 131/314/15

usemtl Metal-corrugated
f 138/285/8 131/279/8 136/283/8 137/284/8
f 139/300/12 142/293/12 143/284/12 145/299/12

g stairs_right
v -10 17 30.1
v -10 16.9 30
v -9.900002 17 30
v -10 1.9 0
v -9 2 0
v -9.900002 2 0
v -9 0 0
v -10 0 0
v -10 17 32
v -10 0 32
v -10 0 30
v -9 17 30
v -9 17 32
v -9 0 32
v -9 0 30

vt 5.320989 6.542172
vt 5.303311 6.511553
vt 5.285634 6.542172
vt 0 0.475
vt -0.25 0.5
vt -0.025 0.5
vt -0.25 0
vt 0 0
vt 8 4.25
vt 7.5 4.225
vt 7.525 4.25
vt 8 -0.25
vt 7.5 -0.25
vt 0 7.525
vt -0.025 7.5
vt -0.25 7.5
vt -0.25 8
vt 0 8
vt 0 4.25
vt 0.25 -0.25
vt 0 -0.25
vt 0.25 4.25
vt -7.5 4.25
vt 0 0.5
vt -7.5 -0.25
vt -8 -0.25
vt -8 4.25
vt -0.025 0.2236068
vt -0.25 8.608862
vt -0.025 8.608862
vt -0.25 0.2236068
vt 0 7.504166
vt 0.25 0
vt 0.25 7.504166
vt 0.25 7.5
vt 0 7.5
vt 0.25 8
vt -3.022882 8.06691
vt -2.987526 8.06691
vt -0.3358758 0.1119585
vt -0.3712311 0.1119585

vn -2.309416 2.309372 -2.309416
vn 0 0 -4
vn -4 0 0
vn 0 4 0
vn 0 0 4
vn 4 0 0
vn 0 3.577709 -1.788854
vn 0 -4 0
vn -2.666695 2.666644 -1.333322

usemtl metal_corrugated
f 148/318/16 147/317/16 146/316/16
f 151/321/17 150/320/17 149/319/17
f 146/326/18 147/325/18 154/324/18
f 157/331/19 148/330/19 146/329/19
f 149/319/17 150/320/17 152/322/17
f 152/322/17 153/323/17 149/319/17
f 156/328/18 155/327/18 154/324/18
f 154/324/18 147/325/18 156/328/18
f 158/332/19 157/331/19 146/329/19
f 146/329/19 154/333/19 158/332/19
f 154/334/20 155/336/20 159/335/20
f 159/335/20 158/337/20 154/334/20
f 159/341/21 160/340/21 157/338/21
f 157/338/21 158/342/21 159/341/21
f 151/343/22 148/345/22 157/344/22
f 157/344/22 150/346/22 151/343/22
f 156/347/23 153/323/23 152/348/23
f 152/348/23 160/349/23 156/347/23
f 155/333/23 156/351/23 160/350/23
f 160/350/23 159/352/23 155/333/23

usemtl Metal-corrugated
f 153/323/18 156/328/18 147/325/18 149/319/18
f 160/340/21 152/323/21 150/339/21 157/338/21

usemtl Metal-corrugated
f 151/356/24 149/355/24 147/354/24 148/353/24

