# ProBuilder 5.0.7
# https://unity3d.com/unity/features/worldbuilding/probuilder
# 8/29/2023 11:17:01 PM

mtllib ./temp_button.mtl
o temp_button

g Cylinder
v 2.515316E-05 1.788139E-07 -1.5
v 2.515316E-05 1 -1.5
v 0.439365 1.788139E-07 -0.4393399
v 0.439365 1 -0.4393399
v 1.500026 1.788139E-07 0
v 1.500026 1 0
v 2.560686 1.788139E-07 -0.4393399
v 2.560686 1 -0.4393399
v 3.000026 1.788139E-07 -1.5
v 3.000026 1 -1.5
v 2.560686 1.788139E-07 -2.56066
v 2.560686 1 -2.56066
v 1.500025 1.788139E-07 -3
v 1.500025 1 -3
v 0.4393653 1.788139E-07 -2.56066
v 0.4393653 1 -2.56066
v 1.500025 1.788139E-07 -1.5
v 1.500025 1 -1.5

vt -1.38581 1.788139E-07
vt -1.38581 1
vt -0.2377594 1.788139E-07
vt -0.2377594 1
vt 0.2377923 1.788139E-07
vt 0.2377923 1
vt 1.385843 1.788139E-07
vt 1.385843 1
vt 2.533893 1.788139E-07
vt 2.533893 1
vt -2.533893 1.788139E-07
vt -2.533893 1
vt 2.515316E-05 -1.5
vt 1.500025 -1.5
vt 0.439365 -0.4393399
vt -1.500025 -1.5
vt -0.439365 -0.4393399
vt 1.500026 0
vt -1.500026 0
vt 2.560686 -0.4393399
vt -2.560686 -0.4393399
vt 3.000026 -1.5
vt -3.000026 -1.5
vt 2.560686 -2.56066
vt -2.560686 -2.56066
vt 1.500025 -3
vt -1.500025 -3
vt 0.4393653 -2.56066
vt -0.4393653 -2.56066

vn -1 0 -8.06445E-08
vn -0.7071068 0 0.7071068
vn 6.45156E-08 0 1
vn 0.7071067 0 0.7071068
vn 1 0 -3.22578E-08
vn 0.7071067 0 -0.7071068
vn 6.45156E-08 0 -1
vn -0.7071067 0 -0.7071069
vn 0 -1 0
vn 0 1 0

usemtl ProBuilderDefault
f 1/13/9 17/14/9 3/15/9
f 3/15/9 17/14/9 5/18/9
f 5/18/9 17/14/9 7/20/9
f 7/20/9 17/14/9 9/22/9
f 9/22/9 17/14/9 11/24/9
f 11/24/9 17/14/9 13/26/9
f 13/26/9 17/14/9 15/28/9
f 15/28/9 17/14/9 1/13/9
f 4/17/10 18/16/10 2/13/10
f 6/19/10 18/16/10 4/17/10
f 8/21/10 18/16/10 6/19/10
f 10/23/10 18/16/10 8/21/10
f 12/25/10 18/16/10 10/23/10
f 14/27/10 18/16/10 12/25/10
f 16/29/10 18/16/10 14/27/10
f 2/13/10 18/16/10 16/29/10
f 4/4/2 2/2/1 1/1/1
f 1/1/1 3/3/2 4/4/2
f 6/8/3 4/6/2 3/5/2
f 3/5/2 5/7/3 6/8/3
f 8/10/4 6/8/3 5/7/3
f 5/7/3 7/9/4 8/10/4
f 10/10/5 8/8/4 7/7/4
f 7/7/4 9/9/5 10/10/5
f 12/8/6 10/6/5 9/5/5
f 9/5/5 11/7/6 12/8/6
f 14/4/7 12/2/6 11/1/6
f 11/1/6 13/3/7 14/4/7
f 16/2/8 14/12/7 13/11/7
f 13/11/7 15/1/8 16/2/8
f 2/2/1 16/12/8 15/11/8
f 15/11/8 1/1/1 2/2/1

