# ProBuilder 5.0.7
# https://unity3d.com/unity/features/worldbuilding/probuilder
# 2023-08-09 2:29:00 PM

mtllib ./warning_strip.mtl
o warning_strip

g warning_strip
v 0 0 16
v -0.75 0 16
v -0.25 0.1365685 16
v -0.5 0.1365685 16
v -0.75 0 0
v -0.5 0.1365685 0
v 0 0 0
v -0.25 0.1365685 0

vt 0 4
vt 0.1875 4
vt 0.0625 4
vt 0.125 4
vt 0.1875 0
vt 0.125 0
vt 0 0
vt 0.0625 0

vn 0 0 4
vn -1.917626 3.510372 0
vn 0 0 -4
vn 1.917626 3.510372 0
vn 0 4 0
vn 0 -4 0

usemtl Warning
f 3/3/1 4/4/1 2/2/1 1/1/1
f 4/4/2 6/6/2 5/5/2 2/2/2
f 6/6/3 8/8/3 7/7/3 5/5/3
f 8/8/4 3/3/4 1/1/4 7/7/4
f 8/8/5 6/6/5 4/4/5 3/3/5
f 1/1/6 2/2/6 5/5/6 7/7/6

