# ProBuilder 5.0.7
# https://unity3d.com/unity/features/worldbuilding/probuilder
# 2023-10-12 2:31:11 PM

mtllib ./bunker_optimized.mtl
o bunker_optimized

g bunker_optimized
v 4 0 0
v 0 0 0
v 0 16 0
v 0 0 -4
v 0 16 -4
v 4 0 -4
v 0 44 84
v -104 44 84
v -8 52 84
v -96 52 84
v -104 44 -16
v -96 52 -8
v 0 44 -16
v -8 52 -8
v -2 18 4
v -4 18 4
v -2 26 4
v -4 26 4
v -4 18 2
v -4 26 2
v -2 18 2
v -2 26 2
v 4 0 132
v 0 0 132
v 0 16 132
v 0 0 128
v 0 16 128
v 4 0 128
v 4 0 140
v 0 0 140
v 0 16 140
v 0 0 136
v 0 16 136
v 4 0 136
v 4 0 148
v 0 0 148
v 0 16 148
v 0 0 144
v 0 16 144
v 4 0 144
v 4 0 100
v 0 0 100
v 0 16 100
v 0 0 96
v 0 16 96
v 4 0 96
v 4 0 92
v 0 0 92
v 0 16 92
v 0 0 88
v 0 16 88
v 4 0 88
v 0 44 184
v -104 44 184
v -8 52 176
v -96 52 176
v -36 30 184
v -36 30 84
v -36 44 184
v -36 44 84
v 0 28 84
v 0 28 184
v -34 28 84
v -34 28 184
v 0 16 154
v -4 16 154
v 0 28 154
v -4 28 154
v -4 16 150
v -4 28 150
v 0 16 150
v 0 28 150
v 4 32 140
v 0 28 140
v 4 40 140
v 0 44 140
v 0 28 136
v 0 44 136
v 4 32 136
v 4 40 136
v 4 32 120
v 0 28 120
v 4 40 120
v 0 44 120
v 0 28 116
v 0 44 116
v 4 32 116
v 4 40 116
v 0 0 80
v -104 0 80
v 0 16 80
v -104 16 80
v -104 0 -16
v -104 16 -16
v 0 0 -16
v 0 16 -16
v 4 0 8
v 0 0 8
v 0 16 8
v 0 0 4
v 0 16 4
v 4 0 4
v -2 26 56
v -4 26 56
v -2 28 56
v -4 28 56
v -4 26 -12
v -4 28 -12
v -2 26 -12
v -2 28 -12
v 4 0 16
v 0 0 16
v 0 16 16
v 0 0 12
v 0 16 12
v 4 0 12
v 4 0 24
v 0 0 24
v 0 16 24
v 0 0 20
v 0 16 20
v 4 0 20
v 4 0 40
v 0 0 40
v 0 16 40
v 0 0 36
v 0 16 36
v 4 0 36
v -100 16 180
v -104 16 180
v -100 28 180
v -104 28 180
v -104 16 -12
v -104 28 -12
v -100 16 -12
v -100 28 -12
v 0 16 -12
v -4 16 -12
v 0 28 -12
v -4 16 -16
v -4 28 -16
v 0 28 -16
v -4 16 80
v 0 28 80
v -4 28 80
v -4 16 76
v -4 28 76
v 0 16 76
v 0 28 76
v -2 18 40
v -4 18 40
v -2 26 40
v -4 26 40
v -4 18 38
v -4 26 38
v -2 18 38
v -2 26 38
v -2 18 22
v -4 18 22
v -2 26 22
v -4 26 22
v -4 18 20
v -4 26 20
v -2 18 20
v -2 26 20
v -104 28 184
v -104 28 84
v -60 30 84
v -60 30 184
v -60 44 84
v -60 44 184
v -62 28 84
v -62 28 184
v 0 16 184
v -4 16 184
v -4 28 184
v -1 16 76
v -3 16 76
v -1 16.125 76
v -3 16.125 76
v -3 16 60
v -3 16.125 60
v -1 16 60
v -1 16.125 60
v -1 16 60.125
v -3 16 60.125
v -3 28 60
v -3 28 60.125
v -1 28 60
v -1 28 60.125
v -3 16 75.875
v -1 16 75.875
v -1 28 76
v -1 28 75.875
v -3 28 76
v -3 28 75.875
v -34 16 184
v -34 16 180
v -34 28 180
v -4 16 180
v -4 28 180
v -62 16 184
v -104 16 184
v -62 16 180
v -62 28 180
v 4 0 48
v 0 0 48
v 0 16 48
v 0 0 44
v 0 16 44
v 4 0 44
v -2 16 56
v -4 16 56
v -2 18 56
v -4 18 56
v -4 18 -12
v -2 16 -12
v -2 18 -12
v -104 28 -16
v 4 0 -8
v 0 0 -8
v 0 16 -8
v 0 0 -12
v 4 0 -12
v 4 32 100
v 0 28 100
v 4 40 100
v 0 44 100
v 0 28 96
v 0 44 96
v 4 32 96
v 4 40 96
v 0 16 60
v -4 16 60
v 0 28 60
v -4 28 60
v 0 16 56
v 0 28 56
v 4 32 60
v 4 40 60
v 0 44 60
v 0 44 56
v 4 32 56
v 4 40 56
v 4 32 40
v 0 28 40
v 4 40 40
v 0 44 40
v 0 28 36
v 0 44 36
v 4 32 36
v 4 40 36
v 4 32 20
v 0 28 20
v 4 40 20
v 0 44 20
v 0 28 16
v 0 44 16
v 4 32 16
v 4 40 16
v 4 32 0
v 0 28 0
v 4 40 0
v 0 44 0
v 0 28 -4
v 0 44 -4
v 4 32 -4
v 4 40 -4
v 4 32 80
v 4 40 80
v 0 44 80
v 0 44 76
v 4 32 76
v 4 40 76
v 0 0 184
v -104 0 184
v -2 16 150
v -2 18 150
v -4 18 150
v -4 18 80
v -2 16 80
v -2 18 80
v -2 26 150
v -4 26 150
v -2 28 150
v -4 26 80
v -2 26 80
v -2 28 80
v -2 18 98
v -4 18 98
v -2 26 98
v -4 26 98
v -4 18 96
v -4 26 96
v -2 18 96
v -2 26 96
v -2 18 116
v -4 18 116
v -2 26 116
v -4 26 116
v -4 18 114
v -4 26 114
v -2 18 114
v -2 26 114
v -2 18 134
v -4 18 134
v -2 26 134
v -4 26 134
v -4 18 132
v -4 26 132
v -2 18 132
v -2 26 132
v 4 0 108
v 0 0 108
v 0 16 108
v 0 0 104
v 0 16 104
v 4 0 104
v 4 0 116
v 0 0 116
v 0 16 116
v 0 0 112
v 0 16 112
v 4 0 112
v 4 0 124
v 0 0 124
v 0 16 124
v 0 0 120
v 0 16 120
v 4 0 120
v 4 0 32
v 0 0 32
v 0 16 32
v 0 0 28
v 0 16 28
v 4 0 28

vt 0.5 0
vt 0 0
vt 0 2
vt -0.5 0
vt -0.5 2
vt 0 -0.5
vt -0.5 -0.5
vt 0 1.5
vt 0.5 1.979091
vt 0 1.979091
vt 0.5 -0.5
vt -13 0
vt -1 1
vt -12 1
vt 9.192387 12.5
vt 9.192387 0
vt 7.778174 12.5
vt 7.778174 1
vt 13 0
vt 12 1.414214
vt 1 1.414214
vt 0 12.5
vt 1.414213 1
vt 1.414213 12.5
vt 1 12.5
vt 12 12.5
vt 1 1
vt 12 1
vt -13 12.5
vt 0 -0.75
vt -0.25 -0.75
vt 0 0.25
vt -0.25 0.25
vt 0.25 -0.75
vt 0.25 0.25
vt 0.25 0
vt -0.25 0
vt 0 -8.838837
vt -13 -8.838837
vt -1 -7.424622
vt -12 -7.424622
vt 7.778174 11.5
vt 7.778174 0
vt 1.414213 0
vt 1.414213 11.5
vt 1 11.5
vt 12 11.5
vt 1 0
vt 12 0
vt 12.5 0.25
vt 12.5 2
vt -12.5 0
vt -12.5 2
vt 4.5 12.5
vt 4.5 0
vt -4.25 0
vt -4.25 12.5
vt -3.358757 12.5
vt -3.358759 0
vt -3.005201 12.5
vt -3.005203 0
vt -4.5 0.25
vt -4.5 2
vt 4.5 2
vt 4.5 0.25
vt 4.25 0
vt 0.25 -1
vt -0.25 -1
vt 0.25 0.5
vt -0.25 0.5
vt 0.5 -1
vt 0 -1
vt 0.5 0.5
vt 0 0.5
vt -0.5 -1
vt -0.5 0.5
vt 0.5 1.5
vt -0.5 1.5
vt 0.7071068 0
vt 0.7071068 -0.5
vt 1.414213 -0.5
vt -13.5 0
vt -13.5 2
vt 12 2
vt 13.5 0
vt 13.5 2
vt 0.5 2
vt -12 0
vt -12 2
vt 0.5 12
vt 13.5 12
vt -0.5 12
vt -13.5 12
vt 9 0
vt 9 0.25
vt 0.5 0.25
vt -9 0
vt -0.5 0.25
vt -9 0.25
vt 0 9
vt 0.25 9
vt -4.375 4.625
vt -4.375 4.875
vt 4.125 4.625
vt 4.125 4.875
vt -4.75 0
vt -5.25 0
vt -4.75 1.5
vt -5.25 1.5
vt 3.75 0
vt -20.25 0
vt 3.75 1.5
vt -20.25 1.5
vt 5.25 0
vt 4.75 0
vt 5.25 1.5
vt 4.75 1.5
vt 20.25 0
vt -3.75 0
vt 20.25 1.5
vt -3.75 1.5
vt 4.75 3.75
vt 5.25 3.75
vt 4.75 -20.25
vt 5.25 -20.25
vt -4.75 -20.25
vt -5.25 -20.25
vt -4.75 3.75
vt -5.25 3.75
vt 12.5 0
vt -12.5 0.25
vt 5.5 12.5
vt 5.5 0
vt -2 0
vt -5.088236 0
vt -2 12.5
vt -5.088236 12.5
vt 0.1767766 0
vt 0.1767766 12.5
vt -0.1767766 0
vt -0.1767766 12.5
vt 5.5 2
vt -5.5 0
vt -5.5 2
vt 0 3.75
vt 0.5 3.75
vt -0.5 3.75
vt 0 0.015625
vt -0.25 0.015625
vt -2 0.015625
vt 0.25 0.015625
vt 2 0
vt 2 0.015625
vt 1.125 -0.875
vt 1.125 -1.125
vt -0.875 -0.875
vt -0.875 -1.125
vt 0 -2
vt -0.25 -2
vt -1.5 0
vt -1.5 0.015625
vt 1.5 -2.384186E-07
vt 1.5 0.01562476
vt 0.875 -0.625
vt 0.875 -0.875
vt -0.625 -0.625
vt -0.625 -0.875
vt 0 -1.5
vt -0.2500001 -1.5
vt 3.25 0
vt 3.25 1.5
vt -3.25 0
vt -3.25 1.5
vt 3.75 3.75
vt 0 3.25
vt 3.75 3.25
vt -3.75 3.25
vt -3.75 3.75
vt 5.25 3.25
vt -5.25 3.25
vt 4.375 4.875
vt 4.375 4.625
vt -4.125 4.875
vt -4.125 4.625
vt -0.25 9
vt -13 2
vt 13 2
vt 13 12.5
vt -12.5 1.5
vt 12.5 1.5
vt 12.5 0.5
vt -12.5 0.5
vt 0.5 12.5
vt 13.5 12.5
vt 13.5 -0.5
vt -13.5 -0.5
vt -0.5 12.5
vt -13.5 12.5
vt 8.25 0
vt 8.25 0.25
vt -8.25 0
vt -8.25 0.25
vt 4.5 4
vt 4.5 3.75
vt -4.25 4
vt -4.25 3.75
vt -0.25 -0.5
vt 0 8.25
vt -0.25 8.25
vt -4.5 4.5
vt -4.5 4.75
vt 4.25 4.5
vt 4.25 4.75

vn 0 0 1
vn -1 0 0
vn 0 0 -1
vn 0.9701425 0.2425356 0
vn 0 -1 0
vn -0.7071068 0.7071068 0
vn 0 0.7071068 -0.7071068
vn 0.7071068 0.7071068 0
vn 0 1 0
vn 1 0 0
vn 0 0.7071068 0.7071068
vn -0.7071068 -0.7071068 0
vn 0.7071068 -0.7071068 0

usemtl Metal-corrugated
f 3/3/1 2/2/1 1/1/1
f 5/8/3 6/7/3 4/6/3
f 25/3/1 24/2/1 23/1/1
f 27/8/3 28/7/3 26/6/3
f 31/3/1 30/2/1 29/1/1
f 33/8/3 34/7/3 32/6/3
f 37/3/1 36/2/1 35/1/1
f 39/8/3 40/7/3 38/6/3
f 43/3/1 42/2/1 41/1/1
f 45/8/3 46/7/3 44/6/3
f 49/3/1 48/2/1 47/1/1
f 51/8/3 52/7/3 50/6/3
f 99/3/1 98/2/1 97/1/1
f 101/8/3 102/7/3 100/6/3
f 113/3/1 112/2/1 111/1/1
f 115/8/3 116/7/3 114/6/3
f 119/3/1 118/2/1 117/1/1
f 121/8/3 122/7/3 120/6/3
f 125/3/1 124/2/1 123/1/1
f 127/8/3 128/7/3 126/6/3
f 208/3/1 207/2/1 206/1/1
f 210/8/3 211/7/3 209/6/3
f 222/3/1 221/2/1 220/1/1
f 137/8/3 224/7/3 223/6/3
f 315/3/1 314/2/1 313/1/1
f 317/8/3 318/7/3 316/6/3
f 321/3/1 320/2/1 319/1/1
f 323/8/3 324/7/3 322/6/3
f 327/3/1 326/2/1 325/1/1
f 329/8/3 330/7/3 328/6/3
f 333/3/1 332/2/1 331/1/1
f 335/8/3 336/7/3 334/6/3
f 5/5/2 4/4/2 2/2/2
f 2/2/2 3/3/2 5/5/2
f 3/10/4 1/2/4 6/1/4
f 6/1/4 5/9/4 3/10/4
f 2/2/5 4/6/5 6/11/5
f 6/11/5 1/1/5 2/2/5
f 27/5/2 26/4/2 24/2/2
f 24/2/2 25/3/2 27/5/2
f 25/10/4 23/2/4 28/1/4
f 28/1/4 27/9/4 25/10/4
f 24/2/5 26/6/5 28/11/5
f 28/11/5 23/1/5 24/2/5
f 33/5/2 32/4/2 30/2/2
f 30/2/2 31/3/2 33/5/2
f 31/10/4 29/2/4 34/1/4
f 34/1/4 33/9/4 31/10/4
f 30/2/5 32/6/5 34/11/5
f 34/11/5 29/1/5 30/2/5
f 39/5/2 38/4/2 36/2/2
f 36/2/2 37/3/2 39/5/2
f 37/10/4 35/2/4 40/1/4
f 40/1/4 39/9/4 37/10/4
f 36/2/5 38/6/5 40/11/5
f 40/11/5 35/1/5 36/2/5
f 45/5/2 44/4/2 42/2/2
f 42/2/2 43/3/2 45/5/2
f 43/10/4 41/2/4 46/1/4
f 46/1/4 45/9/4 43/10/4
f 42/2/5 44/6/5 46/11/5
f 46/11/5 41/1/5 42/2/5
f 51/5/2 50/4/2 48/2/2
f 48/2/2 49/3/2 51/5/2
f 49/10/4 47/2/4 52/1/4
f 52/1/4 51/9/4 49/10/4
f 48/2/5 50/6/5 52/11/5
f 52/11/5 47/1/5 48/2/5
f 101/5/2 100/4/2 98/2/2
f 98/2/2 99/3/2 101/5/2
f 99/10/4 97/2/4 102/1/4
f 102/1/4 101/9/4 99/10/4
f 98/2/5 100/6/5 102/11/5
f 102/11/5 97/1/5 98/2/5
f 115/5/2 114/4/2 112/2/2
f 112/2/2 113/3/2 115/5/2
f 113/10/4 111/2/4 116/1/4
f 116/1/4 115/9/4 113/10/4
f 112/2/5 114/6/5 116/11/5
f 116/11/5 111/1/5 112/2/5
f 121/5/2 120/4/2 118/2/2
f 118/2/2 119/3/2 121/5/2
f 119/10/4 117/2/4 122/1/4
f 122/1/4 121/9/4 119/10/4
f 118/2/5 120/6/5 122/11/5
f 122/11/5 117/1/5 118/2/5
f 127/5/2 126/4/2 124/2/2
f 124/2/2 125/3/2 127/5/2
f 125/10/4 123/2/4 128/1/4
f 128/1/4 127/9/4 125/10/4
f 124/2/5 126/6/5 128/11/5
f 128/11/5 123/1/5 124/2/5
f 210/5/2 209/4/2 207/2/2
f 207/2/2 208/3/2 210/5/2
f 208/10/4 206/2/4 211/1/4
f 211/1/4 210/9/4 208/10/4
f 207/2/5 209/6/5 211/11/5
f 211/11/5 206/1/5 207/2/5
f 137/5/2 223/4/2 221/2/2
f 221/2/2 222/3/2 137/5/2
f 222/10/4 220/2/4 224/1/4
f 224/1/4 137/9/4 222/10/4
f 221/2/5 223/6/5 224/11/5
f 224/11/5 220/1/5 221/2/5
f 317/5/2 316/4/2 314/2/2
f 314/2/2 315/3/2 317/5/2
f 315/10/4 313/2/4 318/1/4
f 318/1/4 317/9/4 315/10/4
f 314/2/5 316/6/5 318/11/5
f 318/11/5 313/1/5 314/2/5
f 323/5/2 322/4/2 320/2/2
f 320/2/2 321/3/2 323/5/2
f 321/10/4 319/2/4 324/1/4
f 324/1/4 323/9/4 321/10/4
f 320/2/5 322/6/5 324/11/5
f 324/11/5 319/1/5 320/2/5
f 329/5/2 328/4/2 326/2/2
f 326/2/2 327/3/2 329/5/2
f 327/10/4 325/2/4 330/1/4
f 330/1/4 329/9/4 327/10/4
f 326/2/5 328/6/5 330/11/5
f 330/11/5 325/1/5 326/2/5
f 335/5/2 334/4/2 332/2/2
f 332/2/2 333/3/2 335/5/2
f 333/10/4 331/2/4 336/1/4
f 336/1/4 335/9/4 333/10/4
f 332/2/5 334/6/5 336/11/5
f 336/11/5 331/1/5 332/2/5

usemtl conc4dark
f 9/13/1 10/14/1 8/12/1 7/2/1
f 10/17/6 12/18/6 11/16/6 8/15/6
f 12/20/7 14/21/7 13/2/7 11/19/7
f 14/23/8 9/24/8 7/22/8 13/2/8
f 14/27/9 12/28/9 10/26/9 9/25/9
f 7/22/5 8/29/5 11/12/5 13/2/5
f 55/40/11 56/41/11 54/39/11 53/38/11
f 56/42/6 10/43/6 8/16/6 54/15/6
f 10/28/3 9/27/3 7/2/3 8/19/3
f 9/44/8 55/45/8 53/22/8 7/2/8
f 9/48/9 10/49/9 56/47/9 55/46/9
f 53/22/5 54/29/5 8/12/5 7/2/5
f 67/69/1 68/70/1 66/68/1 65/67/1
f 68/73/2 70/74/2 69/72/2 66/71/2
f 70/69/3 72/70/3 71/68/3 69/67/3
f 72/74/10 67/76/10 65/75/10 71/72/10
f 72/37/9 70/36/9 68/69/9 67/70/9
f 65/69/5 66/70/5 69/37/5 71/36/5
f 75/77/1 76/3/1 74/2/1 73/73/1
f 76/3/2 78/5/2 77/4/2 74/2/2
f 78/3/3 80/78/3 79/76/3 77/2/3
f 80/77/10 75/8/10 73/74/10 79/73/10
f 80/80/8 78/81/8 76/44/8 75/79/8
f 73/79/13 74/2/13 77/6/13 79/80/13
f 83/77/1 84/3/1 82/2/1 81/73/1
f 84/3/2 86/5/2 85/4/2 82/2/2
f 86/3/3 88/78/3 87/76/3 85/2/3
f 88/77/10 83/8/10 81/74/10 87/73/10
f 88/80/8 86/81/8 84/44/8 83/79/8
f 81/79/13 82/2/13 85/6/13 87/80/13
f 139/69/1 108/70/1 138/68/1 137/67/1
f 108/73/2 141/74/2 140/72/2 138/71/2
f 141/69/3 142/70/3 96/68/3 140/67/3
f 142/74/10 139/76/10 137/75/10 96/72/10
f 142/37/9 141/36/9 108/69/9 139/70/9
f 137/69/5 138/70/5 140/37/5 96/36/5
f 144/69/1 145/70/1 143/68/1 91/67/1
f 145/73/2 147/74/2 146/72/2 143/71/2
f 147/69/3 149/70/3 148/68/3 146/67/3
f 149/74/10 144/76/10 91/75/10 148/72/10
f 149/37/9 147/36/9 145/69/9 144/70/9
f 91/69/5 143/70/5 146/37/5 148/36/5
f 227/77/1 228/3/1 226/2/1 225/73/1
f 228/3/2 230/5/2 229/4/2 226/2/2
f 230/3/3 232/78/3 231/76/3 229/2/3
f 232/77/10 227/8/10 225/74/10 231/73/10
f 232/80/8 230/81/8 228/44/8 227/79/8
f 225/79/13 226/2/13 229/6/13 231/80/13
f 235/69/1 236/70/1 234/68/1 233/67/1
f 236/73/2 106/74/2 213/72/2 234/71/2
f 106/69/3 238/70/3 237/68/3 213/67/3
f 238/74/10 235/76/10 233/75/10 237/72/10
f 238/37/9 106/36/9 236/69/9 235/70/9
f 233/69/5 234/70/5 213/37/5 237/36/5
f 240/77/1 241/3/1 235/2/1 239/73/1
f 241/3/2 242/5/2 238/4/2 235/2/2
f 242/3/3 244/78/3 243/76/3 238/2/3
f 244/77/10 240/8/10 239/74/10 243/73/10
f 244/80/8 242/81/8 241/44/8 240/79/8
f 239/79/13 235/2/13 238/6/13 243/80/13
f 247/77/1 248/3/1 246/2/1 245/73/1
f 248/3/2 250/5/2 249/4/2 246/2/2
f 250/3/3 252/78/3 251/76/3 249/2/3
f 252/77/10 247/8/10 245/74/10 251/73/10
f 252/80/8 250/81/8 248/44/8 247/79/8
f 245/79/13 246/2/13 249/6/13 251/80/13
f 255/77/1 256/3/1 254/2/1 253/73/1
f 256/3/2 258/5/2 257/4/2 254/2/2
f 258/3/3 260/78/3 259/76/3 257/2/3
f 260/77/10 255/8/10 253/74/10 259/73/10
f 260/80/8 258/81/8 256/44/8 255/79/8
f 253/79/13 254/2/13 257/6/13 259/80/13
f 263/77/1 264/3/1 262/2/1 261/73/1
f 264/3/2 266/5/2 265/4/2 262/2/2
f 266/3/3 268/78/3 267/76/3 265/2/3
f 268/77/10 263/8/10 261/74/10 267/73/10
f 268/80/8 266/81/8 264/44/8 263/79/8
f 261/79/13 262/2/13 265/6/13 267/80/13
f 270/77/1 271/3/1 144/2/1 269/73/1
f 271/3/2 272/5/2 149/4/2 144/2/2
f 272/3/3 274/78/3 273/76/3 149/2/3
f 274/77/10 270/8/10 269/74/10 273/73/10
f 274/80/8 272/81/8 271/44/8 270/79/8
f 269/79/13 144/2/13 149/6/13 273/80/13

usemtl conc3
f 17/32/1 18/33/1 16/31/1 15/30/1
f 18/35/2 20/32/2 19/30/2 16/34/2
f 20/35/3 22/32/3 21/30/3 19/34/3
f 22/32/10 17/33/10 15/31/10 21/30/10
f 22/2/9 20/36/9 18/35/9 17/32/9
f 15/32/5 16/33/5 19/37/5 21/2/5
f 152/32/1 153/33/1 151/31/1 150/30/1
f 153/35/2 155/32/2 154/30/2 151/34/2
f 155/35/3 157/32/3 156/30/3 154/34/3
f 157/32/10 152/33/10 150/31/10 156/30/10
f 157/2/9 155/36/9 153/35/9 152/32/9
f 150/32/5 151/33/5 154/37/5 156/2/5
f 160/32/1 161/33/1 159/31/1 158/30/1
f 161/35/2 163/32/2 162/30/2 159/34/2
f 163/35/3 165/32/3 164/30/3 162/34/3
f 165/32/10 160/33/10 158/31/10 164/30/10
f 165/2/9 163/36/9 161/35/9 160/32/9
f 158/32/5 159/33/5 162/37/5 164/2/5
f 291/32/1 292/33/1 290/31/1 289/30/1
f 292/35/2 294/32/2 293/30/2 290/34/2
f 294/35/3 296/32/3 295/30/3 293/34/3
f 296/32/10 291/33/10 289/31/10 295/30/10
f 296/2/9 294/36/9 292/35/9 291/32/9
f 289/32/5 290/33/5 293/37/5 295/2/5
f 299/32/1 300/33/1 298/31/1 297/30/1
f 300/35/2 302/32/2 301/30/2 298/34/2
f 302/35/3 304/32/3 303/30/3 301/34/3
f 304/32/10 299/33/10 297/31/10 303/30/10
f 304/2/9 302/36/9 300/35/9 299/32/9
f 297/32/5 298/33/5 301/37/5 303/2/5
f 307/32/1 308/33/1 306/31/1 305/30/1
f 308/35/2 310/32/2 309/30/2 306/34/2
f 310/35/3 312/32/3 311/30/3 309/34/3
f 312/32/10 307/33/10 305/31/10 311/30/10
f 312/2/9 310/36/9 308/35/9 307/32/9
f 305/32/5 306/33/5 309/37/5 311/2/5

usemtl conc4
f 59/63/1 57/62/1 64/56/1
f 64/56/1 62/2/1 53/3/1
f 59/63/1 64/56/1 53/3/1
f 7/3/3 63/66/3 60/64/3
f 7/3/3 61/2/3 63/66/3
f 63/66/3 58/65/3 60/64/3
f 170/3/3 172/36/3 8/142/3
f 170/3/3 168/32/3 172/36/3
f 172/36/3 167/133/3 8/142/3
f 54/144/1 166/143/1 173/37/1
f 173/37/1 169/32/1 171/3/1
f 54/144/1 173/37/1 171/3/1
f 60/3/2 58/32/2 57/50/2
f 57/50/2 59/51/2 60/3/2
f 60/55/9 59/54/9 53/22/9
f 53/22/9 7/2/9 60/55/9
f 64/57/5 63/56/5 61/2/5
f 61/2/5 62/22/5 64/57/5
f 132/109/1 130/107/1 129/106/1
f 129/106/1 131/108/1 132/109/1
f 134/113/2 133/111/2 130/110/2
f 130/110/2 132/112/2 134/113/2
f 136/117/3 135/115/3 133/114/3
f 133/114/3 134/116/3 136/117/3
f 131/121/10 129/119/10 135/118/10
f 135/118/10 136/120/10 131/121/10
f 134/125/9 132/123/9 131/122/9
f 131/122/9 136/124/9 134/125/9
f 130/129/5 133/127/5 135/126/5
f 135/126/5 129/128/5 130/129/5
f 8/3/2 167/2/2 166/130/2
f 166/130/2 54/51/2 8/3/2
f 171/53/10 169/131/10 168/32/10
f 168/32/10 170/3/10 171/53/10
f 8/133/9 54/132/9 171/22/9
f 171/22/9 170/2/9 8/133/9
f 166/137/5 167/135/5 172/134/5
f 172/134/5 173/136/5 166/137/5
f 176/78/1 175/4/1 174/2/1
f 174/2/1 62/8/1 176/78/1
f 68/8/2 66/2/2 175/110/2
f 175/110/2 176/112/2 68/8/2
f 67/8/3 65/2/3 66/1/3
f 66/1/3 68/77/3 67/8/3
f 62/121/10 174/119/10 65/2/10
f 65/2/10 67/8/10 62/121/10
f 68/1/9 176/146/9 62/145/9
f 62/145/9 67/2/9 68/1/9
f 175/147/5 66/4/5 65/2/5
f 65/2/5 174/145/5 175/147/5
f 64/121/1 197/119/1 175/2/1
f 175/2/1 176/8/1 64/121/1
f 199/171/2 198/170/2 197/110/2
f 197/110/2 64/112/2 199/171/2
f 201/8/3 200/2/3 198/110/3
f 198/110/3 199/112/3 201/8/3
f 176/121/10 175/119/10 200/172/10
f 200/172/10 201/173/10 176/121/10
f 199/176/9 64/174/9 176/145/9
f 176/145/9 201/175/9 199/176/9
f 197/178/5 198/177/5 200/175/5
f 200/175/5 175/145/5 197/178/5
f 166/109/1 203/107/1 202/2/1
f 202/2/1 173/8/1 166/109/1
f 132/171/2 130/170/2 203/110/2
f 203/110/2 166/112/2 132/171/2
f 205/8/3 204/2/3 130/114/3
f 130/114/3 132/116/3 205/8/3
f 173/121/10 202/119/10 204/172/10
f 204/172/10 205/173/10 173/121/10
f 132/179/9 166/123/9 173/145/9
f 173/145/9 205/175/9 132/179/9
f 203/129/5 130/180/5 204/175/5
f 204/175/5 202/145/5 203/129/5
f 8/186/1 167/12/1 61/2/1
f 61/2/1 7/3/1 8/186/1
f 11/3/2 219/2/2 167/130/2
f 167/130/2 8/51/2 11/3/2
f 13/3/3 142/2/3 219/19/3
f 219/19/3 11/187/3 13/3/3
f 11/19/9 8/188/9 7/22/9
f 7/22/9 13/2/9 11/19/9
f 167/29/5 219/12/5 142/2/5
f 142/2/5 61/22/5 167/29/5
f 134/189/1 133/52/1 138/2/1
f 138/2/1 108/8/1 134/189/1
f 219/8/2 94/2/2 133/1/2
f 133/1/2 134/77/2 219/8/2
f 141/8/3 140/2/3 94/130/3
f 94/130/3 219/190/3 141/8/3
f 108/78/10 138/4/10 140/2/10
f 140/2/10 141/8/10 108/78/10
f 219/130/9 134/191/9 108/74/9
f 108/74/9 141/2/9 219/130/9
f 133/192/5 94/52/5 140/2/5
f 140/2/5 138/74/5 133/192/5

usemtl Metal-rivetsx2
f 7/3/10 53/53/10 62/52/10 61/2/10
f 13/3/10 7/53/10 61/52/10 142/2/10

usemtl metal_corrugated
f 63/61/12 64/60/12 57/58/12 58/59/12
f 173/141/13 172/140/13 168/138/13 169/139/13

usemtl trimsheetx2
f 91/5/1 92/83/1 90/82/1 89/4/1
f 92/84/2 94/3/2 93/2/2 90/49/2
f 94/86/3 96/87/3 95/1/3 93/85/3
f 96/3/10 91/89/10 89/88/10 95/2/10
f 89/92/5 90/93/5 93/82/5 95/4/5
f 174/5/1 203/83/1 276/82/1 275/4/1
f 203/51/2 92/5/2 90/4/2 276/130/2
f 92/86/3 91/87/3 89/1/3 90/85/3
f 91/87/10 174/53/10 275/52/10 89/1/10
f 275/197/5 276/198/5 90/196/5 89/7/5

usemtl metal_floor
f 96/1/9 94/85/9 92/91/9 91/90/9
f 91/11/9 92/195/9 203/194/9 174/193/9

usemtl dark-step-trim-cable
f 105/32/1 106/33/1 104/37/1 103/2/1
f 106/95/2 108/96/2 107/1/2 104/94/2
f 108/35/3 110/32/3 109/2/3 107/36/3
f 110/98/10 105/99/10 103/97/10 109/4/10
f 110/74/9 108/69/9 106/101/9 105/100/9
f 103/104/5 104/105/5 107/103/5 109/102/5
f 179/148/1 180/149/1 178/37/1 177/2/1
f 180/148/2 182/150/2 181/134/2 178/2/2
f 182/151/3 184/148/3 183/2/3 181/36/3
f 184/153/10 179/148/10 177/2/10 183/152/10
f 184/156/9 182/157/9 180/155/9 179/154/9
f 177/2/5 178/37/5 181/159/5 183/158/5
f 185/148/5 186/149/5 181/37/5 183/2/5
f 186/148/2 188/161/2 187/160/2 181/2/2
f 188/151/9 190/148/9 189/2/9 187/36/9
f 190/163/10 185/148/10 183/2/10 189/162/10
f 190/166/1 188/167/1 186/165/1 185/164/1
f 183/2/3 181/37/3 187/169/3 189/168/3
f 191/148/5 192/149/5 177/37/5 178/2/5
f 192/148/10 194/161/10 193/160/10 177/2/10
f 194/151/9 196/148/9 195/2/9 193/36/9
f 196/163/2 191/148/2 178/2/2 195/162/2
f 196/166/3 194/167/3 192/165/3 191/164/3
f 178/2/1 177/37/1 193/169/1 195/168/1
f 214/32/1 215/33/1 213/37/1 212/2/1
f 215/95/2 216/96/2 138/1/2 213/94/2
f 216/35/3 218/32/3 217/2/3 138/36/3
f 218/98/10 214/99/10 212/97/10 217/4/10
f 218/183/9 216/184/9 215/182/9 214/181/9
f 212/100/5 213/185/5 138/70/5 217/74/5
f 278/32/1 279/33/1 69/37/1 277/2/1
f 279/200/2 280/98/2 143/4/2 69/199/2
f 280/35/3 282/32/3 281/2/3 143/36/3
f 282/96/10 278/202/10 277/201/10 281/1/10
f 282/205/9 280/206/9 279/204/9 278/203/9
f 277/208/5 69/209/5 143/207/5 281/6/5
f 285/32/1 70/33/1 284/37/1 283/2/1
f 70/95/2 145/35/2 286/36/2 284/94/2
f 145/35/3 288/32/3 287/2/3 286/36/3
f 288/33/10 285/99/10 283/97/10 287/37/10
f 288/32/9 145/35/9 70/101/9 285/100/9
f 283/212/5 284/213/5 286/211/5 287/210/5

